<?xml version="1.0" standalone="no"?>
<!DOCTYPE svg PUBLIC "-//W3C//DTD SVG 20010904//EN"
 "http://www.w3.org/TR/2001/REC-SVG-20010904/DTD/svg10.dtd">
<svg version="1.0" xmlns="http://www.w3.org/2000/svg"
 width="300.000000pt" height="300.000000pt" viewBox="0 0 300.000000 300.000000"
 preserveAspectRatio="xMidYMid meet">
<metadata>
Created by potrace 1.11, written by Peter Selinger 2001-2013
</metadata>
<g transform="translate(0.000000,300.000000) scale(0.100000,-0.100000)"
fill="#000000" stroke="none">
<path d="M375 2561 c-48 -124 -105 -269 -125 -321 -20 -52 -65 -167 -99 -255
-34 -88 -73 -179 -86 -201 -71 -121 -24 -234 125 -302 43 -21 74 -27 142 -29
139 -4 253 46 303 131 22 38 27 56 40 146 2 19 7 44 9 55 2 11 16 74 29 140
30 141 107 465 147 615 23 86 42 170 53 235 1 6 -81 10 -224 11 l-226 1 -88
-226z"/>
<path d="M1000 2784 c0 -3 -18 -85 -41 -182 -22 -97 -43 -188 -46 -202 -4 -22
-17 -82 -28 -130 -73 -309 -128 -565 -128 -600 0 -47 23 -104 54 -130 9 -8 27
-23 38 -33 12 -9 54 -28 93 -41 172 -58 382 -4 453 117 27 47 24 -8 40 687 3
113 7 276 10 363 l6 157 -225 0 c-124 0 -226 -3 -226 -6z"/>
<path d="M1505 2638 c3 -84 8 -256 10 -383 13 -604 14 -616 37 -663 44 -92
159 -146 308 -147 159 0 268 52 319 153 25 49 22 86 -23 277 -21 88 -40 171
-42 185 -3 14 -10 43 -16 65 -5 22 -12 49 -14 60 -2 11 -29 130 -59 265 -31
135 -60 266 -66 293 l-11 47 -224 0 -225 0 6 -152z"/>
<path d="M2025 2780 c-2 -3 33 -149 77 -325 73 -294 152 -644 163 -723 3 -17
7 -48 10 -68 12 -81 71 -149 165 -186 68 -27 210 -31 283 -8 103 32 187 127
187 211 0 21 -13 60 -30 93 -17 32 -78 177 -135 324 -57 147 -137 355 -179
462 -42 107 -80 202 -85 210 -7 13 -43 15 -231 15 -122 0 -223 -2 -225 -5z"/>
<path d="M1456 1598 c3 -4 1 -8 -4 -8 -6 0 -15 -13 -20 -29 -12 -34 -83 -108
-132 -138 -19 -12 -60 -29 -90 -38 -30 -9 -62 -19 -70 -22 -23 -9 -71 -10 -76
-1 -3 4 -15 3 -27 -1 -15 -6 -34 -4 -56 5 -18 7 -35 13 -39 12 -28 -8 -172
101 -172 130 0 7 -3 12 -8 12 -4 0 -12 10 -17 22 -11 23 -45 34 -45 14 0 -15
-109 -116 -125 -116 -6 0 -17 -8 -25 -17 -22 -25 -23 -711 -1 -736 7 -10 10
-17 7 -17 -4 0 2 -13 13 -29 l21 -29 290 1 c160 1 290 -2 290 -6 0 -5 5 -5 11
-1 16 10 329 11 329 1 0 -5 5 -5 11 -1 6 3 169 7 362 8 395 3 406 5 449 75 21
35 22 46 25 385 3 347 3 350 -19 373 -12 13 -25 23 -30 23 -11 0 -78 69 -78
80 0 4 -6 10 -14 13 -15 6 -46 -22 -46 -41 0 -7 -4 -12 -10 -12 -5 0 -10 -5
-10 -10 0 -6 -18 -28 -40 -50 -22 -22 -40 -37 -40 -34 0 3 -13 -4 -30 -16 -16
-12 -30 -19 -30 -16 0 3 -17 -1 -37 -9 -46 -18 -102 -25 -109 -14 -2 4 -15 4
-27 0 -14 -5 -37 -3 -60 5 -21 8 -41 13 -45 12 -4 -1 -25 7 -47 17 -22 10 -43
17 -47 17 -5 -1 -8 3 -8 8 0 6 -7 10 -15 10 -8 0 -15 5 -15 10 0 6 -6 10 -12
10 -19 1 -91 94 -100 128 -4 16 -14 29 -22 29 -9 0 -13 -4 -10 -9z"/>
<path d="M431 1392 c-13 -24 -60 -43 -163 -68 l-78 -18 0 -120 c-1 -327 1
-768 4 -829 4 -79 19 -120 49 -136 20 -10 252 -20 572 -24 l110 -2 2 148 1
147 -46 1 c-46 0 -171 6 -306 12 -61 3 -72 7 -93 31 -12 15 -23 37 -24 49 0
12 -2 201 -4 420 -2 219 -5 401 -8 404 -3 2 -10 -4 -16 -15z"/>
<path d="M2425 860 c-21 -24 -24 -72 -5 -95 20 -24 64 -15 68 14 3 18 0 22
-12 18 -22 -9 -29 8 -10 24 14 11 20 9 40 -14 13 -16 24 -33 24 -40 0 -7 -23
-48 -51 -91 -97 -149 -123 -215 -134 -341 -6 -62 -4 -72 14 -92 12 -12 21 -27
21 -33 0 -5 11 -10 25 -10 31 0 46 26 33 59 -18 48 -12 171 11 236 58 162 215
305 335 305 72 0 141 -64 117 -109 -15 -28 -56 -28 -58 -1 -1 11 2 20 8 20 5
0 9 9 9 20 0 25 -32 27 -51 4 -17 -21 -17 -81 2 -99 22 -21 62 -25 98 -8 53
26 76 95 50 146 -16 30 -67 76 -98 89 -58 24 -169 5 -248 -42 l-32 -19 -17 29
c-31 51 -105 67 -139 30z"/>
<path d="M995 488 c-2 -7 -3 -78 -2 -158 l2 -145 119 0 119 0 15 43 c13 40 16
42 52 42 36 0 38 -2 49 -45 8 -34 16 -45 30 -45 51 0 51 3 2 163 l-46 152 -36
3 -35 3 -40 -133 -40 -133 -58 0 c-58 0 -73 7 -70 35 1 8 2 22 3 32 1 13 11
16 44 15 51 -1 68 8 60 31 -9 25 -21 30 -59 26 -36 -3 -46 6 -49 45 -2 25 -1
26 51 24 44 -1 54 2 59 18 4 10 3 23 0 29 -9 15 -165 13 -170 -2z m324 -154
c1 -6 -11 -11 -25 -11 -19 0 -24 3 -18 16 4 9 9 30 12 46 l5 30 13 -35 c7 -19
13 -40 13 -46z"/>
<path d="M1440 340 l0 -160 30 0 c34 0 33 -3 31 135 -1 64 0 68 12 45 8 -14
24 -43 36 -65 13 -22 32 -57 44 -77 16 -29 27 -38 48 -38 15 0 29 6 31 12 3
11 3 231 -1 291 -1 11 -9 17 -26 17 -31 0 -36 -20 -33 -122 2 -42 3 -76 2 -75
-1 1 -18 31 -37 67 -71 132 -69 130 -104 130 l-33 0 0 -160z"/>
<path d="M1735 488 c-2 -7 -3 -78 -2 -158 l2 -145 30 0 c27 0 30 3 31 35 4
100 -1 90 55 90 49 0 50 1 47 28 -3 25 -6 27 -53 27 l-51 0 3 34 c3 43 5 44
53 46 60 3 62 3 58 28 -3 20 -9 22 -86 25 -60 2 -83 -1 -87 -10z"/>
<path d="M1971 393 c-18 -59 -34 -115 -36 -123 -2 -8 -8 -28 -14 -44 -14 -34
-4 -49 30 -44 16 2 26 14 37 46 13 40 16 42 52 42 36 0 38 -1 49 -46 11 -43
13 -45 44 -42 23 2 31 7 28 18 -13 55 -23 87 -52 185 l-34 110 -36 3 -35 3
-33 -108z m82 -40 c6 -28 4 -33 -13 -33 -21 0 -25 16 -14 58 8 29 19 18 27
-25z"/>
<path d="M2187 493 c-2 -4 -4 -75 -3 -158 l1 -150 30 0 30 0 0 155 0 155 -27
3 c-14 2 -28 0 -31 -5z"/>
</g>
</svg>
